<?xml version="1.0" encoding="UTF-8" standalone="no"?>
<svg
   xmlns:dc="http://purl.org/dc/elements/1.1/"
   xmlns:cc="http://creativecommons.org/ns#"
   xmlns:rdf="http://www.w3.org/1999/02/22-rdf-syntax-ns#"
   xmlns:svg="http://www.w3.org/2000/svg"
   xmlns="http://www.w3.org/2000/svg"
   xmlns:sodipodi="http://sodipodi.sourceforge.net/DTD/sodipodi-0.dtd"
   xmlns:inkscape="http://www.inkscape.org/namespaces/inkscape"
   id="svg2842"
   viewBox="0 0 456 456"
   version="1.1"
   inkscape:version="1.0.2 (e86c870879, 2021-01-15, custom)"
   sodipodi:docname="smartnuance.svg"
   width="456"
   height="456">
  <defs
     id="defs8" />
  <sodipodi:namedview
     pagecolor="#ffffff"
     bordercolor="#666666"
     borderopacity="1"
     objecttolerance="10"
     gridtolerance="10"
     guidetolerance="10"
     inkscape:pageopacity="0"
     inkscape:pageshadow="2"
     inkscape:window-width="2492"
     inkscape:window-height="1401"
     id="namedview6"
     showgrid="false"
     inkscape:zoom="1.8725235"
     inkscape:cx="161.99828"
     inkscape:cy="260.93111"
     inkscape:window-x="63"
     inkscape:window-y="5"
     inkscape:window-maximized="0"
     inkscape:current-layer="svg2842"
     fit-margin-top="1"
     fit-margin-left="1"
     fit-margin-right="1"
     fit-margin-bottom="1"
     lock-margins="true" />
  <metadata
     id="metadata3">
    <rdf:RDF>
      <cc:Work>
        <dc:format>image/svg+xml</dc:format>
        <dc:type
           rdf:resource="http://purl.org/dc/dcmitype/StillImage" />
        <cc:license
           rdf:resource="http://creativecommons.org/publicdomain/zero/1.0/" />
        <dc:publisher>
          <cc:Agent
             rdf:about="http://openclipart.org/">
            <dc:title>Openclipart</dc:title>
          </cc:Agent>
        </dc:publisher>
        <dc:title></dc:title>
        <dc:date>2010-04-22T06:54:35</dc:date>
        <dc:description>These are some quick sketches and doodles I made in my notebook on a flight. These are mostly shit, but hey, lets see if useful!</dc:description>
        <dc:source>https://openclipart.org/detail/50131/curly-braces-by-rejon</dc:source>
        <dc:creator>
          <cc:Agent>
            <dc:title>rejon</dc:title>
          </cc:Agent>
        </dc:creator>
        <dc:subject>
          <rdf:Bag>
            <rdf:li>black</rdf:li>
            <rdf:li>bw</rdf:li>
            <rdf:li>drawings</rdf:li>
            <rdf:li>fast</rdf:li>
            <rdf:li>rapid</rdf:li>
            <rdf:li>rejon</rdf:li>
            <rdf:li>sketch</rdf:li>
            <rdf:li>sketchbook</rdf:li>
            <rdf:li>unchecked</rdf:li>
            <rdf:li>white</rdf:li>
          </rdf:Bag>
        </dc:subject>
      </cc:Work>
      <cc:License
         rdf:about="http://creativecommons.org/publicdomain/zero/1.0/">
        <cc:permits
           rdf:resource="http://creativecommons.org/ns#Reproduction" />
        <cc:permits
           rdf:resource="http://creativecommons.org/ns#Distribution" />
        <cc:permits
           rdf:resource="http://creativecommons.org/ns#DerivativeWorks" />
      </cc:License>
    </rdf:RDF>
  </metadata>
  <path
     id="path3239"
     style="fill:#000000"
     d="m 29.544622,170.60183 c 1.649578,-2.75586 8.216267,-2.73832 10.378604,0.0278 1.340171,1.71412 1.054844,2.01252 -1.843221,1.92796 -3.020916,-0.0882 -3.362469,0.33392 -2.87204,3.54934 0.306107,2.00718 0.991568,7.2291 1.52328,11.60437 0.531671,4.37526 1.119534,9.14855 1.306362,10.60761 0.186845,1.45867 0.656039,2.95869 1.042615,3.33323 0.386624,0.37459 2.195415,4.01895 4.019702,8.09869 3.869815,8.65465 12.395706,18.53344 18.849948,21.84209 12.604916,6.4609 14.917146,7.03508 27.616776,6.85612 14.840412,-0.20914 24.053612,-2.24177 35.802632,-7.89939 29.65815,-14.28104 52.20983,-8.21003 75.17445,1.83544 11.91448,5.21178 18.28957,15.00845 27.1727,27.99469 3.3013,4.74026 9.7199,15.75949 11.22447,15.80339 1.42918,0.0417 5.36107,-8.45103 9.35409,-20.20476 8.03616,-23.65468 14.94761,-34.0195 24.60063,-36.89618 5.73306,-1.7083 21.52855,1.32373 39.12657,7.51082 32.28865,11.3516 57.15373,17.17665 74.41999,14.60817 13.20994,-1.96513 20.91018,-6.96977 26.364,-17.13533 5.37535,-10.02048 12.70206,-49.17731 8.87829,-52.14811 -1.49007,-1.15774 -0.83104,-2.95431 -1.74742,-2.23788 -2.01635,1.57645 -2.69786,-1.7619 -2.60279,-5.85307 0.0441,-1.87581 0.0385,-3.40465 -0.53887,-4.37681 -3.74476,-7.02096 -0.70962,-6.44502 -0.0769,-8.99318 0.44966,-1.07685 1.37931,-1.94151 2.06582,-1.92147 1.53195,0.0447 9.10817,12.95317 8.13909,13.86729 -0.38242,0.36073 -0.0739,1.90266 0.68511,3.42655 0.75924,1.52388 1.30014,18.82331 1.20204,23.77607 -0.14118,7.12381 -5.14199,25.31049 -8.78924,34.03283 -2.53597,6.06471 -5.59467,12.30105 -6.79719,13.85764 -3.15623,4.08677 -18.71838,10.36845 -28.8459,11.6446 -16.06284,2.02296 -45.78341,-5.43332 -79.3724,-17.27176 -12.97911,-4.57411 -25.22855,-6.55473 -30.61466,-4.94985 -4.34642,1.29518 -5.53467,2.79837 -12.56496,15.89528 -4.27056,7.95583 -7.79235,15.41227 -7.8261,16.56878 -0.0951,3.26142 -8.52474,22.656 -10.94199,25.17657 -4.45215,4.64092 -7.97605,2.23751 -15.68269,-10.69597 -6.10047,-10.23829 -6.84586,-11.31249 -11.07304,-15.96577 -2.15939,-2.37699 -4.45435,-5.22314 -5.09999,-6.32484 -2.92648,-4.99418 -16.14592,-13.78079 -27.09331,-18.0069 -9.0349,-3.48851 -14.0386,-4.60713 -22.27922,-4.98053 -10.07497,-0.4565 -11.35582,-0.17177 -24.67247,5.4847 -25.38631,10.78314 -30.94035,12.17774 -47.246022,11.86001 -20.328138,-0.39524 -29.94015,-3.79218 -41.141428,-14.54016 -5.997903,-5.7548 -9.13923,-10.11278 -11.702437,-16.23524 -5.826424,-13.91486 -10.234009,-40.02252 -7.522007,-44.55335 z"
     sodipodi:nodetypes="ccsssssccscacscccscsccccssscscccsssccsccscccccc" />
  <path
     id="path3239-6"
     style="fill:#000000"
     d="M 28.633226,103.62956 C 32.98493,84.644063 40.352015,74.073703 56.450139,63.715653 c 14.433942,-9.286747 14.601512,-9.361975 26.748619,-11.96421 8.59864,-1.842448 17.411522,-2.239741 47.531652,-2.142895 36.32216,0.116749 51.49627,-0.761055 52.94278,-3.062534 0.40128,-0.638402 1.73466,-1.172863 2.96291,-1.187735 2.81634,-0.03391 7.00319,-3.44852 10.3031,-8.402499 2.55116,-3.829741 2.7684,-7.468599 1.76973,-29.638418 -0.14876,-3.302525 0.36481,-6.032 1.18652,-6.305373 1.58004,-0.525798 20.21998,16.408023 20.20519,18.355969 -0.009,1.212168 1.33129,2.653389 9.16266,9.850568 2.39078,2.197124 3.89219,3.189254 3.33655,2.204701 -0.82209,-1.456681 -0.47687,-1.499462 1.853,-0.229697 1.57483,0.858275 3.18405,2.415457 3.57593,3.460455 0.3919,1.045008 1.43946,1.905487 2.32793,1.912238 0.88851,0.0067 4.2239,2.387149 7.41205,5.289841 3.18815,2.902692 7.27644,6.052735 9.0851,7.00009 1.80866,0.947385 3.58289,2.081769 3.94268,2.520823 1.28779,1.57132 18.51156,8.028006 24.0203,9.004866 7.77156,1.37795 18.41701,0.98983 24.24242,-0.88402 2.68803,-0.86457 11.02251,-1.47504 18.51983,-1.3566 15.3626,0.24264 36.91167,0.98468 52.47124,9.52739 41.25005,19.69446 34.27861,48.637857 38.22864,53.278487 1.09431,1.28564 2.87166,3.91123 3.43794,3.71941 1.44525,-0.54205 2.04922,0.032 2.03477,1.93351 -0.026,3.4273 -2.25859,4.83528 -4.57344,2.88426 -1.57295,-1.33849 -2.88467,0.38639 -2.48276,-1.18544 0.49962,-1.91286 -10.92398,-30.277407 -17.79053,-34.590677 -4.93789,-7.02017 -15.9733,-15.02614 -16.75223,-15.95907 -0.3599,-0.43089 -2.57923,-1.63834 -4.93197,-2.68323 -2.35263,-1.04491 -4.27418,-2.34904 -4.27001,-2.89802 0.004,-0.549 -1.34578,-1.00845 -2.99993,-1.02101 -1.65415,-0.0125 -4.17356,-0.83742 -5.59864,-1.83297 -3.66477,-2.56021 -22.59786,-4.00063 -30.36021,-5.03671 -4.3703,-0.58328 -12.17487,0.0682 -23.12534,1.93064 -14.70941,2.50157 -17.47241,2.62269 -25.10007,1.09982 -11.69061,-2.33394 -26.20323,-8.36463 -35.24878,-14.647104 -8.369,-5.81272 -19.77001,-16.138596 -17.89146,-16.204336 0.66578,-0.02315 -0.56621,-0.846155 -2.7378,-1.828439 -2.17159,-0.982264 -7.87426,-5.459359 -12.67281,-9.949132 -4.79843,-4.489766 -9.07904,-8.165882 -9.51233,-8.169169 -0.43336,-0.0032 -0.81742,3.876006 -0.85345,8.620666 -0.0961,12.647634 -5.04386,21.808326 -14.06415,26.037949 -10.33509,4.846255 -21.21656,5.919645 -57.48971,5.670775 -50.817822,-0.34873 -62.045002,2.00128 -80.443175,16.83559 -15.42691,12.43921 -21.983304,31.164947 -19.546514,55.826167 1.326869,13.42747 0.380319,19.08344 -3.189007,19.05633 -2.615526,-0.0199 -3.79015,-2.78626 -3.937685,-9.27417 -0.07438,-3.26906 -0.445311,-10.70069 -0.824356,-16.51373 -0.457514,-7.01718 -0.029,-13.45061 1.274979,-19.13887 z m 392.615834,29.1948 c -303.06344,-113.117484 -151.53172,-56.558737 0,0 z"
     sodipodi:nodetypes="cccssccscsssssssscccccscscccccsssccccsscsscsccssscccc" />
  <path
     id="path3239-7"
     style="fill:#000000;stroke-width:2.81134"
     d="m 183.06979,116.73639 c -16.44913,-4.52694 -42.64237,-1.03707 -48.99672,14.7961 -2.98248,7.43147 4.86821,16.93446 11.8157,20.91622 14.32973,8.21267 37.86595,10.90094 49.54286,-0.77976 4.9613,-4.96291 2.81291,-14.48848 0.32447,-21.04993 -2.22294,-5.86134 -6.64232,-12.21927 -12.68631,-13.88263 z"
     sodipodi:nodetypes="aaaasa" />
  <path
     id="path3239-7-5"
     style="fill:#000000;stroke-width:2.81134"
     d="m 280.88427,117.21674 c 15.42535,-2.79112 39.1654,-0.84988 44.98615,13.70521 2.97339,7.43512 -4.86821,16.93446 -11.8157,20.91622 -14.32973,8.21267 -37.86595,10.90094 -49.54286,-0.77976 -4.9613,-4.96291 -2.81291,-14.48848 -0.32447,-21.04993 2.22294,-5.86134 9.7977,-11.54337 16.69688,-12.79174 z"
     sodipodi:nodetypes="aaaasa" />
  <path
     d="m 350.81509,453.04286 q 0,-2.57356 1.35921,-6.53286 1.26214,-3.9593 3.30096,-8.51252 2.03883,-4.5532 4.466,-9.7003 2.42718,-4.94913 4.66018,-9.89827 2.33009,-4.75116 4.17475,-8.90844 1.94173,-3.95931 2.81552,-6.53285 2.33009,-6.92879 3.78639,-13.65962 1.55339,-6.92879 2.42718,-13.85758 0.87378,-7.12676 1.16504,-14.64945 0.29126,-7.52267 0.29126,-15.44129 0,-12.47181 -1.94174,-22.76602 -1.84465,-10.2942 -4.66017,-18.80672 -2.81553,-8.71047 -6.21357,-15.4413 -3.30096,-6.92879 -6.21357,-12.07589 -2.81553,-5.1471 -4.75727,-8.90843 -1.94174,-3.76135 -1.94174,-6.13693 0,-2.17763 0.38835,-3.56339 0.38835,-1.58372 1.74757,-1.58372 0.0971,0 0.38834,0 0.38836,0 0.48544,0 4.66018,6.73082 8.73783,13.65961 4.17475,6.9288 7.66987,14.8474 3.59222,7.72066 6.31066,17.02504 2.81552,9.1064 4.66018,20.19246 -0.19418,3.36542 -0.0971,7.12676 0.19418,3.56337 0.38835,7.32472 l 0.58252,7.52268 q 0.19417,3.76135 0.19417,7.32472 0,7.52269 -0.67961,16.62911 -0.67961,8.90843 -2.13591,17.81687 -1.35922,8.90845 -3.49513,17.02504 -2.13592,8.11657 -5.04853,13.6596 l -19.90283,38.60326 q -0.19418,0.19797 -0.38835,0.19797 h -0.48544 q -0.48543,0 -1.26213,-0.19797 -0.77669,-0.19796 -0.77669,-1.78169 z"
     style="font-style:normal;font-variant:normal;font-weight:normal;font-stretch:normal;font-size:141.963px;line-height:1.25;font-family:'Swanky and Moo Moo';-inkscape-font-specification:'Swanky and Moo Moo';fill:#000000;fill-opacity:1;stroke:none;stroke-width:1.3309"
     id="path167" />
  <path
     d="m 74.155476,350.89597 q 0,-8.84543 1.359217,-19.16509 1.456308,-10.31968 3.786398,-20.63935 2.330083,-10.31966 5.533954,-19.9022 3.203872,-9.82826 6.796089,-17.19946 3.592225,-7.61689 7.378615,-12.0396 3.883481,-4.42272 7.669871,-4.42272 0.58253,0 0.87379,0.73713 0.38835,0.73711 0.58252,1.96563 0.19417,1.22854 0.19417,2.70279 0,1.47423 0,2.94847 v 1.47424 q -2.91261,2.45707 -6.21357,7.12549 -3.203864,4.4227 -6.310652,10.81107 -3.106782,6.14265 -6.019391,13.75956 -2.912615,7.37118 -5.145615,15.72521 -2.233,8.10831 -3.495134,16.95374 -1.262128,8.84543 -1.262128,17.93655 0,10.07397 1.456308,19.16511 1.55339,9.09112 3.980563,17.44515 2.524263,8.35401 5.631044,15.4795 3.203872,7.12549 6.504833,13.51384 3.300952,6.38837 6.504822,11.79391 3.20388,5.15984 5.63106,9.33685 2.52426,4.42271 3.98056,7.8626 1.45631,3.6856 1.45631,6.14267 0,2.21135 -0.67961,2.94846 -0.58253,0.98284 -1.26214,0.98284 -0.0971,0 -0.48543,-0.24571 -0.29126,0 -0.48543,0 -3.7864,-5.40553 -8.15532,-11.54821 -4.368905,-6.14265 -8.543648,-13.26814 -4.174744,-7.37118 -8.058224,-15.4795 -3.786391,-8.35403 -6.796089,-17.93657 -2.912609,-9.82825 -4.660173,-20.88504 -1.74757,-11.30249 -1.74757,-24.07922 z"
     style="font-style:normal;font-variant:normal;font-weight:normal;font-stretch:normal;font-size:141.963px;line-height:1.25;font-family:'Swanky and Moo Moo';-inkscape-font-specification:'Swanky and Moo Moo';fill:#000000;fill-opacity:1;stroke:none;stroke-width:1.48272"
     id="path165" />
</svg>
