<svg width="456" height="456" version="1.1" viewBox="0 0 456 456" xmlns="http://www.w3.org/2000/svg"><g><path d="m29.545 170.6c1.6496-2.7559 8.2163-2.7383 10.379 0.0278 1.3402 1.7141 1.0548 2.0125-1.8432 1.928-3.0209-0.0882-3.3625 0.33392-2.872 3.5493 0.30611 2.0072 0.99157 7.2291 1.5233 11.604 0.53167 4.3753 1.1195 9.1486 1.3064 10.608 0.18684 1.4587 0.65604 2.9587 1.0426 3.3332 0.38662 0.37459 2.1954 4.019 4.0197 8.0987 3.8698 8.6546 12.396 18.533 18.85 21.842 12.605 6.4609 14.917 7.0351 27.617 6.8561 14.84-0.20914 24.054-2.2418 35.803-7.8994 29.658-14.281 52.21-8.21 75.174 1.8354 11.914 5.2118 18.29 15.008 27.173 27.995 3.3013 4.7403 9.7199 15.759 11.224 15.803 1.4292 0.0417 5.3611-8.451 9.3541-20.205 8.0362-23.655 14.948-34.02 24.601-36.896 5.7331-1.7083 21.529 1.3237 39.127 7.5108 32.289 11.352 57.154 17.177 74.42 14.608 13.21-1.9651 20.91-6.9698 26.364-17.135 5.3754-10.02 12.702-49.177 8.8783-52.148-1.4901-1.1577-0.83104-2.9543-1.7474-2.2379-2.0164 1.5764-2.6979-1.7619-2.6028-5.8531 0.0441-1.8758 0.0385-3.4046-0.53887-4.3768-3.7448-7.021-0.70962-6.445-0.0769-8.9932 0.44966-1.0768 1.3793-1.9415 2.0658-1.9215 1.532 0.0447 9.1082 12.953 8.1391 13.867-0.38242 0.36073-0.0739 1.9027 0.68511 3.4266 0.75924 1.5239 1.3001 18.823 1.202 23.776-0.14118 7.1238-5.142 25.31-8.7892 34.033-2.536 6.0647-5.5947 12.301-6.7972 13.858-3.1562 4.0868-18.718 10.368-28.846 11.645-16.063 2.023-45.783-5.4333-79.372-17.272-12.979-4.5741-25.229-6.5547-30.615-4.9498-4.3464 1.2952-5.5347 2.7984-12.565 15.895-4.2706 7.9558-7.7924 15.412-7.8261 16.569-0.0951 3.2614-8.5247 22.656-10.942 25.177-4.4522 4.6409-7.976 2.2375-15.683-10.696-6.1005-10.238-6.8459-11.312-11.073-15.966-2.1594-2.377-4.4544-5.2231-5.1-6.3248-2.9265-4.9942-16.146-13.781-27.093-18.007-9.0349-3.4885-14.039-4.6071-22.279-4.9805-10.075-0.4565-11.356-0.17177-24.672 5.4847-25.386 10.783-30.94 12.178-47.246 11.86-20.328-0.39524-29.94-3.7922-41.141-14.54-5.9979-5.7548-9.1392-10.113-11.702-16.235-5.8264-13.915-10.234-40.023-7.522-44.553z"/><path d="m28.633 103.63c4.3517-18.985 11.719-29.556 27.817-39.914 14.434-9.2867 14.602-9.362 26.749-11.964 8.5986-1.8424 17.412-2.2397 47.532-2.1429 36.322 0.11675 51.496-0.76106 52.943-3.0625 0.40128-0.6384 1.7347-1.1729 2.9629-1.1877 2.8163-0.03391 7.0032-3.4485 10.303-8.4025 2.5512-3.8297 2.7684-7.4686 1.7697-29.638-0.14876-3.3025 0.36481-6.032 1.1865-6.3054 1.58-0.5258 20.22 16.408 20.205 18.356-9e-3 1.2122 1.3313 2.6534 9.1627 9.8506 2.3908 2.1971 3.8922 3.1893 3.3366 2.2047-0.82209-1.4567-0.47687-1.4995 1.853-0.2297 1.5748 0.85828 3.184 2.4155 3.5759 3.4605 0.3919 1.045 1.4395 1.9055 2.3279 1.9122 0.88851 0.0067 4.2239 2.3871 7.412 5.2898s7.2764 6.0527 9.0851 7.0001c1.8087 0.94738 3.5829 2.0818 3.9427 2.5208 1.2878 1.5713 18.512 8.028 24.02 9.0049 7.7716 1.378 18.417 0.98983 24.242-0.88402 2.688-0.86457 11.023-1.475 18.52-1.3566 15.363 0.24264 36.912 0.98468 52.471 9.5274 41.25 19.694 34.279 48.638 38.229 53.278 1.0943 1.2856 2.8717 3.9112 3.4379 3.7194 1.4452-0.54205 2.0492 0.032 2.0348 1.9335-0.026 3.4273-2.2586 4.8353-4.5734 2.8843-1.573-1.3385-2.8847 0.38639-2.4828-1.1854 0.49962-1.9129-10.924-30.277-17.791-34.591-4.9379-7.0202-15.973-15.026-16.752-15.959-0.3599-0.43089-2.5792-1.6383-4.932-2.6832-2.3526-1.0449-4.2742-2.349-4.27-2.898 4e-3 -0.549-1.3458-1.0084-2.9999-1.021-1.6542-0.0125-4.1736-0.83742-5.5986-1.833-3.6648-2.5602-22.598-4.0006-30.36-5.0367-4.3703-0.58328-12.175 0.0682-23.125 1.9306-14.709 2.5016-17.472 2.6227-25.1 1.0998-11.691-2.3339-26.203-8.3646-35.249-14.647-8.369-5.8127-19.77-16.139-17.891-16.204 0.66578-0.02315-0.56621-0.84616-2.7378-1.8284-2.1716-0.98226-7.8743-5.4594-12.673-9.9491-4.7984-4.4898-9.079-8.1659-9.5123-8.1692-0.43336-0.0032-0.81742 3.876-0.85345 8.6207-0.0961 12.648-5.0439 21.808-14.064 26.038-10.335 4.8463-21.217 5.9196-57.49 5.6708-50.818-0.34873-62.045 2.0013-80.443 16.836-15.427 12.439-21.983 31.165-19.547 55.826 1.3269 13.427 0.38032 19.083-3.189 19.056-2.6155-0.0199-3.7902-2.7863-3.9377-9.2742-0.07438-3.2691-0.44531-10.701-0.82436-16.514-0.45751-7.0172-0.029-13.451 1.275-19.139z"/><path d="m183.07 116.74c-16.449-4.5269-42.642-1.0371-48.997 14.796-2.9825 7.4315 4.8682 16.934 11.816 20.916 14.33 8.2127 37.866 10.901 49.543-0.77976 4.9613-4.9629 2.8129-14.488 0.32447-21.05-2.2229-5.8613-6.6423-12.219-12.686-13.883z" stroke-width="2.8113"/><path d="m280.88 117.22c15.425-2.7911 39.165-0.84988 44.986 13.705 2.9734 7.4351-4.8682 16.934-11.816 20.916-14.33 8.2127-37.866 10.901-49.543-0.77976-4.9613-4.9629-2.8129-14.488-0.32447-21.05 2.2229-5.8613 9.7977-11.543 16.697-12.792z" stroke-width="2.8113"/><path d="m350.82 453.04q0-2.5736 1.3592-6.5329 1.2621-3.9593 3.301-8.5125 2.0388-4.5532 4.466-9.7003 2.4272-4.9491 4.6602-9.8983 2.3301-4.7512 4.1748-8.9084 1.9417-3.9593 2.8155-6.5328 2.3301-6.9288 3.7864-13.66 1.5534-6.9288 2.4272-13.858 0.87378-7.1268 1.165-14.649 0.29126-7.5227 0.29126-15.441 0-12.472-1.9417-22.766-1.8446-10.294-4.6602-18.807-2.8155-8.7105-6.2136-15.441-3.301-6.9288-6.2136-12.076-2.8155-5.1471-4.7573-8.9084-1.9417-3.7614-1.9417-6.1369 0-2.1776 0.38835-3.5634 0.38835-1.5837 1.7476-1.5837 0.0971 0 0.38834 0 0.38836 0 0.48544 0 4.6602 6.7308 8.7378 13.66 4.1748 6.9288 7.6699 14.847 3.5922 7.7207 6.3107 17.025 2.8155 9.1064 4.6602 20.192-0.19418 3.3654-0.0971 7.1268 0.19418 3.5634 0.38835 7.3247l0.58252 7.5227q0.19417 3.7614 0.19417 7.3247 0 7.5227-0.67961 16.629-0.67961 8.9084-2.1359 17.817-1.3592 8.9084-3.4951 17.025-2.1359 8.1166-5.0485 13.66l-19.903 38.603q-0.19418 0.19797-0.38835 0.19797h-0.48544q-0.48543 0-1.2621-0.19797-0.77669-0.19796-0.77669-1.7817z"/><path d="m74.155 350.9q0-8.8454 1.3592-19.165 1.4563-10.32 3.7864-20.639 2.3301-10.32 5.534-19.902 3.2039-9.8283 6.7961-17.199 3.5922-7.6169 7.3786-12.04 3.8835-4.4227 7.6699-4.4227 0.58253 0 0.87379 0.73713 0.38835 0.73711 0.58252 1.9656 0.19417 1.2285 0.19417 2.7028 0 1.4742 0 2.9485v1.4742q-2.9126 2.4571-6.2136 7.1255-3.2039 4.4227-6.3107 10.811-3.1068 6.1426-6.0194 13.76-2.9126 7.3712-5.1456 15.725-2.233 8.1083-3.4951 16.954-1.2621 8.8454-1.2621 17.937 0 10.074 1.4563 19.165 1.5534 9.0911 3.9806 17.445 2.5243 8.354 5.631 15.48 3.2039 7.1255 6.5048 13.514 3.301 6.3884 6.5048 11.794 3.2039 5.1598 5.6311 9.3368 2.5243 4.4227 3.9806 7.8626 1.4563 3.6856 1.4563 6.1427 0 2.2114-0.67961 2.9485-0.58253 0.98284-1.2621 0.98284-0.0971 0-0.48543-0.24571-0.29126 0-0.48543 0-3.7864-5.4055-8.1553-11.548-4.3689-6.1426-8.5436-13.268-4.1747-7.3712-8.0582-15.48-3.7864-8.354-6.7961-17.937-2.9126-9.8282-4.6602-20.885-1.7476-11.302-1.7476-24.079z"/></g><g transform="matrix(13.116 0 0 13.116 -1274.1 -1503.6)"><path d="m108.55 145.79a3.0921 3.3205 0 0 1-2.7878-1.659 3.8677 4.1534 0 0 1 5e-3 -4.0726 3.103 3.3323 0 0 1 2.859-1.6505l11.819 0.0209a3.1085 3.3381 0 0 1 2.8508 1.6628 3.8676 4.1533 0 0 1-7e-3 4.072c-0.59242 1.0844-1.6076 1.6623-2.8584 1.647l-11.819-0.0209q-0.0311 3.4e-4 -0.0619 4.3e-4zm0.0177-6.9826a2.7384 2.9407 0 0 0-2.4789 1.4533 3.4843 3.7417 0 0 0-5e-3 3.6689 2.741 2.9434 0 0 0 2.5255 1.4599l11.825 0.0209a2.7453 2.9481 0 0 0 2.5336-1.4494 3.484 3.7413 0 0 0 6e-3 -3.6684 2.7528 2.9562 0 0 0-2.5267-1.4637l-11.825-0.0209c-0.0181-4.2e-4 -0.0362-5.5e-4 -0.0542-6.1e-4z" stroke-width=".25961"/><g transform="translate(0 -.013198)"><path d="m113.65 142.12a2.5358 2.4966 0 0 1 1.2691-2.1632 2.5371 2.4979 0 1 0 0 4.3261 2.5355 2.4963 0 0 1-1.2691-2.1629z" fill="#9a9df1" stroke-width=".10296" data-name="Path 6"/><path d="m116.84 142.12a2.5357 2.4965 0 0 1 1.2691-2.1632 2.5371 2.4979 0 1 0 0 4.3261 2.5355 2.4963 0 0 1-1.2691-2.1629z" fill="#6467f1" stroke-width=".10296" data-name="Path 7"/><path id="a4813fcf-056e-4514-bb8b-e6506f49341f" transform="matrix(.26458 0 0 .26458 105.27 138.4)" d="m55.504 4.6094a9.5891 9.4409 0 0 0-9.5898 9.4414 9.5891 9.4409 0 0 0 9.5898 9.4395 9.5891 9.4409 0 0 0 9.5898-9.4395 9.5891 9.4409 0 0 0-9.5898-9.4414zm-0.28711 2.3789 1.7812 0.11328 0.13672 1.3262a5.8577 5.7672 0 0 1 2.0469 1.0156l1.0508-0.64062 1.1777 1.3203-0.78125 0.94141a5.8596 5.7691 0 0 1 0.76758 2.1836l1.3691 0.31641-0.11523 1.7539-1.3848 0.13672a5.8607 5.7701 0 0 1-1.0645 2.1328l0.65039 1.0332-1.3418 1.1602-0.95703-0.76953a5.8598 5.7693 0 0 1-2.2832 0.76367l-0.31836 1.3359-1.7812-0.11328-0.14062-1.377a5.8592 5.7687 0 0 1-2.1133-1.041l-0.97266 0.59375-1.1777-1.3203 0.72266-0.87109a5.8562 5.7657 0 0 1-0.76758-2.1426l-1.3164-0.30469 0.11328-1.7539 1.3086-0.12891a5.8584 5.7678 0 0 1 1.0918-2.2168l-0.60156-0.95703 1.3418-1.1602 0.88477 0.71094a5.8602 5.7697 0 0 1 2.373-0.7793zm0.41016 2.3438a4.7635 4.6899 0 1 0 3.1348 8.2129 4.7635 4.6899 0 0 0 0.43555-6.6191 4.7635 4.6899 0 0 0-3.5703-1.5937z" fill="#36d39a" stroke-width=".38915"/></g></g></svg>
