<svg width="538" height="538" version="1.1" viewBox="0 0 538 538" xmlns="http://www.w3.org/2000/svg"><g><path d="m3.3667 252.38c1.6496-2.7559 8.2163-2.7383 10.379 0.0278 1.3402 1.7141 1.0548 2.0125-1.8432 1.928-3.0209-0.0882-3.3625 0.33392-2.872 3.5493 0.30611 2.0072 0.99157 7.2291 1.5233 11.604 0.53167 4.3753 1.1195 9.1486 1.3064 10.608 0.18684 1.4587 0.65604 2.9587 1.0426 3.3332 0.38662 0.37459 2.1954 4.019 4.0197 8.0987 3.8698 8.6546 12.396 18.533 18.85 21.842 12.605 6.4609 14.917 7.0351 27.617 6.8561 14.84-0.20914 24.054-2.2418 35.803-7.8994 29.658-14.281 52.21-8.21 75.174 1.8354 11.914 5.2118 18.29 15.008 27.173 27.995 3.3013 4.7403 9.7199 15.759 11.224 15.803 1.4292 0.0417 5.3611-8.451 9.3541-20.205 8.0362-23.655 14.948-34.02 24.601-36.896 5.7331-1.7083 21.529 1.3237 39.127 7.5108 32.289 11.352 57.154 17.177 74.42 14.608 13.21-1.9651 20.91-6.9698 26.364-17.135 5.3754-10.02 12.702-49.177 8.8783-52.148-1.4901-1.1577-0.83104-2.9543-1.7474-2.2379-2.0164 1.5764-2.6979-1.7619-2.6028-5.8531 0.0441-1.8758 0.0385-3.4046-0.53887-4.3768-3.7448-7.021-0.70962-6.445-0.0769-8.9932 0.44966-1.0768 1.3793-1.9415 2.0658-1.9215 1.532 0.0447 9.1082 12.953 8.1391 13.867-0.38242 0.36073-0.0739 1.9027 0.68511 3.4266 0.75924 1.5239 1.3001 18.823 1.202 23.776-0.14118 7.1238-5.142 25.31-8.7892 34.033-2.536 6.0647-5.5947 12.301-6.7972 13.858-3.1562 4.0868-18.718 10.368-28.846 11.645-16.063 2.023-45.783-5.4333-79.372-17.272-12.979-4.5741-25.229-6.5547-30.615-4.9498-4.3464 1.2952-5.5347 2.7984-12.565 15.895-4.2706 7.9558-7.7924 15.412-7.8261 16.569-0.0951 3.2614-8.5247 22.656-10.942 25.177-4.4522 4.6409-7.976 2.2375-15.683-10.696-6.1005-10.238-6.8459-11.312-11.073-15.966-2.1594-2.377-4.4544-5.2231-5.1-6.3248-2.9265-4.9942-16.146-13.781-27.093-18.007-9.0349-3.4885-14.039-4.6071-22.279-4.9805-10.075-0.4565-11.356-0.17177-24.672 5.4847-25.386 10.783-30.94 12.178-47.246 11.86-20.328-0.39524-29.94-3.7922-41.141-14.54-5.9979-5.7548-9.1392-10.113-11.702-16.235-5.8264-13.915-10.234-40.023-7.522-44.553z"/><path d="m2.4553 185.41c4.3517-18.985 11.719-29.556 27.817-39.914 14.434-9.2868 14.602-9.362 26.749-11.964 8.5986-1.8424 17.412-2.2397 47.532-2.1429 36.322 0.11675 51.496-0.76105 52.943-3.0625 0.40128-0.6384 1.7347-1.1729 2.9629-1.1877 2.8163-0.0339 7.0032-3.4485 10.303-8.4025 2.5512-3.8297 2.7684-7.4686 1.7697-29.638-0.14876-3.3025 0.36481-6.032 1.1865-6.3054 1.58-0.5258 20.22 16.408 20.205 18.356-9e-3 1.2122 1.3313 2.6534 9.1627 9.8506 2.3908 2.1971 3.8922 3.1892 3.3366 2.2047-0.82209-1.4567-0.47687-1.4995 1.853-0.2297 1.5748 0.85828 3.184 2.4155 3.5759 3.4605 0.3919 1.045 1.4395 1.9055 2.3279 1.9122 0.88851 7e-3 4.2239 2.3872 7.412 5.2898s7.2764 6.0527 9.0851 7.0001c1.8087 0.94738 3.5829 2.0818 3.9427 2.5208 1.2878 1.5713 18.512 8.028 24.02 9.0049 7.7716 1.378 18.417 0.98983 24.242-0.88402 2.688-0.86457 11.023-1.475 18.52-1.3566 15.363 0.24264 36.912 0.98468 52.471 9.5274 41.25 19.694 34.279 48.638 38.229 53.278 1.0943 1.2856 2.8717 3.9112 3.4379 3.7194 1.4452-0.54205 2.0492 0.032 2.0348 1.9335-0.026 3.4273-2.2586 4.8353-4.5734 2.8843-1.573-1.3385-2.8847 0.38639-2.4828-1.1854 0.49962-1.9129-10.924-30.277-17.791-34.591-4.9379-7.0202-15.973-15.026-16.752-15.959-0.3599-0.43089-2.5792-1.6383-4.932-2.6832-2.3526-1.0449-4.2742-2.349-4.27-2.898 4e-3 -0.549-1.3458-1.0084-2.9999-1.021-1.6542-0.0125-4.1736-0.83742-5.5986-1.833-3.6648-2.5602-22.598-4.0006-30.36-5.0367-4.3703-0.58328-12.175 0.0682-23.125 1.9306-14.709 2.5016-17.472 2.6227-25.1 1.0998-11.691-2.3339-26.203-8.3646-35.249-14.647-8.369-5.8127-19.77-16.139-17.891-16.204 0.66578-0.0232-0.56621-0.84616-2.7378-1.8284-2.1716-0.98227-7.8743-5.4594-12.673-9.9491-4.7984-4.4898-9.079-8.1659-9.5123-8.1692-0.43336-0.0032-0.81742 3.876-0.85345 8.6207-0.0961 12.648-5.0439 21.808-14.064 26.038-10.335 4.8463-21.217 5.9196-57.49 5.6708-50.818-0.34873-62.045 2.0013-80.443 16.836-15.427 12.439-21.983 31.165-19.547 55.826 1.3269 13.427 0.38032 19.083-3.189 19.056-2.6155-0.0199-3.7902-2.7863-3.9377-9.2742-0.07438-3.2691-0.44531-10.701-0.82436-16.514-0.45751-7.0172-0.029-13.451 1.275-19.139z"/><path d="m156.89 198.51c-16.449-4.5269-42.642-1.0371-48.997 14.796-2.9825 7.4315 4.8682 16.934 11.816 20.916 14.33 8.2127 37.866 10.901 49.543-0.77976 4.9613-4.9629 2.8129-14.488 0.32447-21.05-2.2229-5.8613-6.6423-12.219-12.686-13.883z" stroke-width="2.8113"/><path d="m254.71 198.99c15.425-2.7911 39.165-0.84988 44.986 13.705 2.9734 7.4351-4.8682 16.934-11.816 20.916-14.33 8.2127-37.866 10.901-49.543-0.77976-4.9613-4.9629-2.8129-14.488-0.32447-21.05 2.2229-5.8613 9.7977-11.543 16.697-12.792z" stroke-width="2.8113"/><path d="m324.64 534.82q0-2.5736 1.3592-6.5329 1.2621-3.9593 3.301-8.5125 2.0388-4.5532 4.466-9.7003 2.4272-4.9491 4.6602-9.8983 2.3301-4.7512 4.1748-8.9084 1.9417-3.9593 2.8155-6.5328 2.3301-6.9288 3.7864-13.66 1.5534-6.9288 2.4272-13.858 0.87378-7.1268 1.165-14.649 0.29126-7.5227 0.29126-15.441 0-12.472-1.9417-22.766-1.8446-10.294-4.6602-18.807-2.8155-8.7105-6.2136-15.441-3.301-6.9288-6.2136-12.076-2.8155-5.1471-4.7573-8.9084-1.9417-3.7614-1.9417-6.1369 0-2.1776 0.38835-3.5634 0.38835-1.5837 1.7476-1.5837 0.0971 0 0.38834 0 0.38836 0 0.48544 0 4.6602 6.7308 8.7378 13.66 4.1748 6.9288 7.6699 14.847 3.5922 7.7207 6.3107 17.025 2.8155 9.1064 4.6602 20.192-0.19418 3.3654-0.0971 7.1268 0.19418 3.5634 0.38835 7.3247l0.58252 7.5227q0.19417 3.7614 0.19417 7.3247 0 7.5227-0.67961 16.629-0.67961 8.9084-2.1359 17.817-1.3592 8.9084-3.4951 17.025-2.1359 8.1166-5.0485 13.66l-19.903 38.603q-0.19418 0.19797-0.38835 0.19797h-0.48544q-0.48543 0-1.2621-0.19797-0.77669-0.19796-0.77669-1.7817z"/><path d="m47.978 432.67q0-8.8454 1.3592-19.165 1.4563-10.32 3.7864-20.639 2.3301-10.32 5.534-19.902 3.2039-9.8283 6.7961-17.199 3.5922-7.6169 7.3786-12.04 3.8835-4.4227 7.6699-4.4227 0.58253 0 0.87379 0.73713 0.38835 0.73711 0.58252 1.9656 0.19417 1.2285 0.19417 2.7028 0 1.4742 0 2.9485v1.4742q-2.9126 2.4571-6.2136 7.1255-3.2039 4.4227-6.3107 10.811-3.1068 6.1426-6.0194 13.76-2.9126 7.3712-5.1456 15.725-2.233 8.1083-3.4951 16.954-1.2621 8.8454-1.2621 17.937 0 10.074 1.4563 19.165 1.5534 9.0911 3.9806 17.445 2.5243 8.354 5.631 15.48 3.2039 7.1255 6.5048 13.514 3.301 6.3884 6.5048 11.794 3.2039 5.1598 5.6311 9.3368 2.5243 4.4227 3.9806 7.8626 1.4563 3.6856 1.4563 6.1427 0 2.2114-0.67961 2.9485-0.58253 0.98284-1.2621 0.98284-0.0971 0-0.48543-0.24571-0.29126 0-0.48543 0-3.7864-5.4055-8.1553-11.548-4.3689-6.1426-8.5436-13.268-4.1747-7.3712-8.0582-15.48-3.7864-8.354-6.7961-17.937-2.9126-9.8282-4.6602-20.885-1.7476-11.302-1.7476-24.079z"/></g><g transform="translate(-75.702 62.925)" display="none" fill="#000000" font-family="sans-serif" font-size="141.96px" stroke-width="1.3309"><text transform="scale(.7003 1.428)" x="-639.3761" y="164.61911" style="line-height:1.25" xml:space="preserve"><tspan x="-639.3761" y="164.61911" font-family="'Swanky and Moo Moo'" font-size="141.96px" stroke-width="1.3309">(         )</tspan></text><text transform="scale(.7003 1.428)" x="-621.89972" y="355.65161" style="line-height:1.25" xml:space="preserve"><tspan x="-621.89972" y="355.65161" font-family="'Swanky and Moo Moo'" font-size="141.96px" stroke-width="1.3309">&lt;        &gt;</tspan></text></g><g transform="matrix(1.177 0 0 1.177 357.74 1)"><path d="m91.01 58.25c-0.75928-4.9575-1.9142-9.8796-4.437-14.264-1.6221-3.7414-4.8594-6.189-8.0415-6.3006a5.1466 5.1466 0 0 0-0.61042-0.84383 6.4208 6.4208 0 0 0-8.3391-1.6648c-2.1049 1.232-3.1282 3.5734-4.1579 5.6778-0.107 0.22694-0.197 0.46045-0.30151 0.68832a75.675 75.675 0 0 0-3.5412 8.8536c-6.0929 18.799-7.5479 39.428-1.9602 58.525a101.6 101.6 0 0 0 3.8971 12.455c0.86964 1.8803 1.4297 4.1724 3.2023 5.413 2.8464 2.4294 7.1256 0.67952 8.383-2.471 4.5805 0.41817 8.0968-4.782 10.709-8.2927 3.6589-4.8063 5.3098-10.72 6.0464-16.638a113.36 113.36 0 0 0 1.2648-17.919 158.47 158.47 0 0 0-2.1138-23.218z" fill="#36d39a"/><path d="m134.92 20.602c-8.4376-10.51-19.681-23.037-35.165-20.193a91.488 86.972 0 0 0-23.549 6.0162c-1.4298 0.5859-8.775 3.4668-4.3923 2.1513a94.744 90.067 0 0 1 23.675-3.2075c3.6517-0.05 7.2347-0.19142 10.486 0.67018 6.0643 1.4114 10.15 5.7278 14.361 10.861 0.4393 0.54232 1.0917 1.3474 1.5464 1.9083 12.815 15.666 16.036 32.712 18.006 49.489 3.9345 37.853-7.2721 78.533-34.398 91.397a36.756 34.942 0 0 1-4.259 1.4799c-2.2894-0.76316-5.0001-0.50606-8.2453 1.3208-23.343 0.72218-41.984-24.218-50.157-47.68-5.7233-16.552-6.6892-27.973-5.7383-45.535 0.85748-16.192 7.13-37.557 24.204-49.546 7.1287-4.7586 15.714-6.4977 23.998-8.5472-10.857 0.86132-22.254 2.1311-31.209 8.5843-21.344 15.616-27.896 42.368-26.997 66.855 1.5823 33.033 22.736 77.686 55.392 85.15-0.03335 0.25313-0.06259 0.50662-0.09562 0.75974a14.081 13.386 0 0 0-1.3704 5.1526c-0.54625 4.6048-0.85534 9.2308-1.117 13.858-13.91 9.9874-19.409 24.707-7.3059 39.415 6.9598 8.2625 13.089 12.371 16.913 19.513 0.19649 0.40134 0.38266 0.78019 0.5227 1.0611 0.18442 0.44842 0.37302 0.89546 0.53497 1.3516a38.272 36.383 0 0 1 1.6211 6.2731 37.306 35.465 0 0 1-0.16895 9.7526c-1.6393 6.3454-1.5766 5.9405-5.5113 11.965a8.5634 8.1407 0 0 0-0.56747 0.775c-11.886 14.466-26.485 15.472-46.553 23.5-17.478 6.4937-34.705 14.216-38.298 33.604-0.26568 1.0863-0.48903 2.1817-0.70616 3.2771 0.21605-0.55908 0.54616-1.3076 0.74235-1.7967 3.0177-7.2727 7.9182-14.011 15.28-17.806 10.915-5.908 26.9-8.7941 41.292-12.693 11.671-3.0275 23.725-6.9075 32.464-15.212a47.326 44.99 0 0 0 12.228-18.371c2.7724-9.4472 2.6217-19.962-1.6361-28.992-4.2369-9.2365-13.188-15.264-20.345-22.336-6.6257-7.0444-8.7501-14.928-0.57077-25.234a2.5481 2.4223 0 0 0 0.9438 0.98048 2.6689 2.5371 0 0 0 3.9155-2.2572c0.29226-1.4279 0.54849-2.9746 0.78789-4.5752 6.63-5.5937 14.637-8.7516 22.82-11.606a24.144 22.952 0 0 1 1.2378 3.8523c0.36232 5.723-5.3835 8.3644-9.8793 10.777q-2.2352 1.1096-4.5534 2.0586a39.665 37.708 0 0 0 12.228-3.6207c9.4859-4.612 6.6746-13.432 3.6218-21.122-0.59492-1.548-1.2558-3.1274-2.0032-4.633 16.479-6.955 28.734-23.424 34.625-39.602 12.077-30.368 12.244-82.39-8.6566-109.25zm-48.605 167.11a77.961 74.113 0 0 1 2.2902-11.963 19.049 18.108 0 0 1 2.2553-2.8857 40.19 38.207 0 0 0 12.027-1.3359 95.144 90.448 0 0 1 4.701 8.889c0.12983 0.30271 0.26559 0.63188 0.40018 0.95642-7.4726 1.2969-14.911 3.0557-21.674 6.3388z" stroke-width="1.0256"/><path d="m68.226 122.44a149.46 149.46 0 0 1-4.2332-18.959c-3.1108-15.727-2.6923-31.603 4.0092-48.211 0.88149-2.0119 3.6983-7.8655 5.5268-11.013-1.4767 1.4998-2.8682 3.0814-4.207 4.7052a60.124 60.124 0 0 0-13.462 44.412 104.42 104.42 0 0 0 8.5578 28.733c2.685 5.4012 6.4591 10.164 10.212 14.852a139.54 139.54 0 0 1-6.4043-14.519z"/><path d="m83.01 86.3" fill="#d7f3fd"/><path d="m-76.849 326.07c-9.9522 1.651-19.45 6.7367-29.122 10.505 9.9747 0.40013 19.767-4.1489 28.997-9.8156 1.1937-0.7854 2.1286-1.1344 0.12487-0.68962z" stroke-width=".75842"/><path d="m-89.982 421.64c-8.2444-3.9339-17.676-4.4211-26.653-6.2302 7.3474 5.8551 16.762 7.0038 26.251 6.8034 1.2506-0.0749 2.1115 0.11423 0.4015-0.5732z" stroke-width=".7381"/><path d="m-78.261 378.7c-12.629-2.6085-25.537-1.803-38.338-2.3068 12.157 4.5431 25.296 4.3644 38.016 2.902 1.6578-0.23849 2.8915-0.17547 0.32136-0.59514z" fill="#6467f1" stroke-width=".84963"/><path d="m-72.662 365.68c-10.344-7.7011-22.383-12.425-33.772-18.291 9.0988 9.255 21.082 14.645 33.229 18.695 1.6033 0.48441 2.6948 1.0629 0.54275-0.40359z" fill="#6467f1" stroke-width=".84963"/><path d="m-154.9 376.86c-10.337-0.74881-20.399 1.6109-30.567 2.7784 10.244 2.5502 20.58 0.72548 30.4-2.202 1.2729-0.42464 2.255-0.52414 0.1674-0.57647z" stroke-width=".72505"/><path d="m-123.71 352.28c-5.7419 3.9567-9.8361 9.1864-14.562 13.928 6.5659-3.1146 11.061-8.2189 14.754-13.601 0.45684-0.71784 0.91973-1.1699-0.19199-0.32669z" fill="#6467f1" stroke-width=".47719"/><path d="m-131.07 406.5c-3.1386-6.2269-7.7626-10.995-11.817-16.322 2.1921 6.9287 6.6373 12.077 11.467 16.468 0.649 0.55027 1.0338 1.0704 0.34977-0.14575z" stroke-width=".47719"/><g stroke-width=".84963"><path d="m-122.95 410.25c-7.3688-2.9185-15.208 0.98719-22.334 2.9908 4.7552-0.18961 12.65-1.0447 15.811-0.60466 6.0724 0.49101 8.9527 4.1213 6.7724 9.2925-2.6243 5.5989-9.7732 6.4844-14.586 3.6681-2.0337-1.2305-4.0582-3.2376-3.9079-5.7925 0.32541-1.638-0.38308 0.27581-0.40452 0.91373 0.0543 8.2856 11.194 12 17.742 8.4536 7.4311-3.5468 9.3171-15.347 0.90739-18.922z"/><path d="m-109.58 337.52c-4.2744-5.8191-14.949-3.032-21.18-2.5668 4.459 0.59421 7.1953 0.90116 10.78 1.4685 3.2478 0.65474 8.239 1.443 7.3272 5.5022-0.75471 2.6267-1.439 4.9513-4.5571 6.7551-2.7727 1.1395-6.6298 0.7573-8.7464-1.4801a6.4855 6.4855 0 0 1-0.97869-3.9111 10.022 10.022 0 0 0-0.39508 1.8295c-0.55808 7.1806 11.117 9.436 15.203 4.5136 2.8482-3.1337 4.8731-8.1529 2.5474-12.111z" fill="#6467f1"/><path d="m-58.119 315.52c-6.1519-3.2462-13.341-0.65391-19.682 0.69603 7.0432 0.40693 21.277-1.3914 19.89 8.8039a13.915 13.915 0 0 1-2.1152 4.6495c-1.4654 1.5033-3.3687 3.0765-5.5838 3.0356-2.7784-0.1738-4.9522-2.1529-6.8438-3.9411 3.0595 6.1893 8.4426 8.436 14.251 4.0161 5.3601-4.1891 6.7135-13.59 0.0843-17.26z"/><path d="m-192.15 372.19c-5.236-3.7143-12.128-0.83344-17.801 0.30446 4.0995 0.35287 9.0166 0.46994 11.238 0.94911 1.2157 0.16349 2.3842 0.57768 3.4315 1.2163 1.1748 1.1003 1.9241 2.5796 2.1161 4.1777 0.22065 2.1905 0.47862 5.6083-0.84415 7.8176-1.5195 1.219-3.429 1.8466-5.3754 1.7668-3.6861-1.1382-8.4681-5.053-10.231-6.3575 1.6026 1.9825 2.591 6.7601 10.292 8.4687 2.733 0.64772 6.0382 0.22185 8.163-1.7203 3.5584-4.6297 3.571-12.632-0.98795-16.623z"/></g><path d="m-132.59 369.23c-6.9084-2.6629-14.307 2e-3 -20.958 2.2252 6.3482-0.29752 13.234-1.351 19.101 1.5411 2.9527 1.5049 4.301 3.8259 2.8836 6.6006-0.59505 1.599-2.9915 3.591-3.6741 4.0237a9.6361 9.6361 0 0 1-6.5919 2.2385 7.2994 7.2994 0 0 1-5.4275-2.1562 17.104 17.104 0 0 1-2.3017-2.8862 13.806 13.806 0 0 0 0.65861 1.8409c2.6289 7.2038 11.844 7.5108 17.311 3.367 7.0373-4.4904 7.3287-13.627-1.001-16.795z" fill="#6467f1"/><path d="m-57.855 368.78c-5.0632-1.9803-10.433 0.66453-15.364 1.9274 4.8339 0.1727 10.373-1.3459 14.611 1.6207 4.1834 3.4153 4.9387 9.5997 2.5036 14.382-2.2717 4.7419-6.5566 3.8588-9.6686 1.0435a28.259 28.259 0 0 1-2.507-2.2174c0.35351 0.64412 0.72772 1.2762 1.1395 1.8849 3.4335 5.8376 9.8397 7.346 14.029 1.3511 4.6979-6.3226 2.9601-16.951-4.7432-19.993z" fill="#6467f1" stroke-width=".84963"/><path d="m-71.448 415.69c-5.0483-4.5164-12.182-3.3382-18.391-3.0042 4.082 1.0521 8.4739 1.4295 12.258 3.3664 4.0892 2.36 5.4425 6.136 4.1395 10.042-1.1256 4.4039-4.9513 8.6176-10.552 8.2146a13.099 13.099 0 0 1-7.6646-4.1212c-0.2491-0.30704-0.47788-0.63025-0.69705-0.95838 0.0761 0.27239 0.15378 0.54413 0.24541 0.81172 2.6888 7.2156 12.088 10.575 18.394 5.7901 6.4069-4.2877 8.4715-14.809 2.2678-20.141z" stroke-width=".84963"/></g></svg>
